<svg width="142" height="51" viewBox="0 0 142 51" fill="none" xmlns="http://www.w3.org/2000/svg">
<rect x="0.437195" y="0.952637" width="140.566" height="49.1982" rx="17.5" fill="#080809"/>
<path d="M31.0656 34.6885C27.7183 34.6692 24.9495 27.8363 24.9495 24.3564C24.9495 18.6721 29.2137 17.4276 30.8571 17.4276C31.5977 17.4276 32.3885 17.7185 33.086 17.9758C33.5738 18.1554 34.0782 18.3407 34.3588 18.3407C34.5267 18.3407 34.9225 18.183 35.2719 18.0447C36.017 17.7481 36.9442 17.3794 38.0239 17.3794C38.0259 17.3794 38.0285 17.3794 38.0304 17.3794C38.8366 17.3794 41.2811 17.5563 42.7508 19.7634L43.095 20.2807L42.5996 20.6546C41.8918 21.1887 40.6003 22.1629 40.6003 24.0926C40.6003 26.3782 42.0629 27.2572 42.7656 27.6799C43.0758 27.8665 43.3968 28.0589 43.3968 28.4797C43.3968 28.7545 41.2039 34.6544 38.0194 34.6544C37.2402 34.6544 36.6894 34.4202 36.2036 34.2136C35.712 34.0045 35.2879 33.8243 34.5872 33.8243C34.232 33.8243 33.7828 33.9923 33.3073 34.1705C32.6575 34.4131 31.922 34.6885 31.0874 34.6885H31.0656Z" fill="white"/>
<path d="M38.3613 12.1982C38.4443 15.1886 36.3057 17.2632 34.1696 17.1331C33.8176 14.7467 36.3054 12.1982 38.3613 12.1982Z" fill="white"/>
<path d="M55.3002 19.2266H56.7762L54.7689 13.3228H53.0484L51.0411 19.2266H52.517L52.8122 18.2989H55.005L55.3002 19.2266ZM53.217 17.0338L53.9086 14.8663L54.6002 17.0338H53.217Z" fill="white"/>
<path d="M59.7631 15.0096L58.886 17.6832L58.0089 15.0096H56.6088L58.1691 19.2266H59.6029L61.1632 15.0096H59.7631Z" fill="white"/>
<path d="M64.5242 15.0096V15.406C64.2459 15.0855 63.8326 14.8916 63.2675 14.8916C62.1627 14.8916 61.2518 15.8615 61.2518 17.1181C61.2518 18.3748 62.1627 19.3447 63.2675 19.3447C63.8326 19.3447 64.2459 19.1507 64.5242 18.8302V19.2266H65.7893V15.0096H64.5242ZM63.5205 18.1471C62.9386 18.1471 62.5169 17.7507 62.5169 17.1181C62.5169 16.4856 62.9386 16.0892 63.5205 16.0892C64.1025 16.0892 64.5242 16.4856 64.5242 17.1181C64.5242 17.7507 64.1025 18.1471 63.5205 18.1471Z" fill="white"/>
<path d="M66.7174 19.2266H67.9825V13.0698H66.7174V19.2266Z" fill="white"/>
<path d="M69.5408 14.6385C69.9541 14.6385 70.2999 14.2928 70.2999 13.8795C70.2999 13.4662 69.9541 13.1204 69.5408 13.1204C69.1276 13.1204 68.7818 13.4662 68.7818 13.8795C68.7818 14.2928 69.1276 14.6385 69.5408 14.6385ZM68.9083 19.2266H70.1734V15.0096H68.9083V19.2266Z" fill="white"/>
<path d="M73.6209 14.8916C73.0558 14.8916 72.6426 15.0855 72.3642 15.406V13.3228H71.0991V19.2266H72.3642V18.8302C72.6426 19.1507 73.0558 19.3447 73.6209 19.3447C74.7257 19.3447 75.6366 18.3748 75.6366 17.1181C75.6366 15.8615 74.7257 14.8916 73.6209 14.8916ZM73.3679 18.1471C72.7859 18.1471 72.3642 17.7507 72.3642 17.1181C72.3642 16.4856 72.7859 16.0892 73.3679 16.0892C73.9498 16.0892 74.3715 16.4856 74.3715 17.1181C74.3715 17.7507 73.9498 18.1471 73.3679 18.1471Z" fill="white"/>
<path d="M76.3539 19.2266H77.619V13.0698H76.3539V19.2266Z" fill="white"/>
<path d="M79.6749 17.6242H82.669C82.7027 17.4639 82.7196 17.2952 82.7196 17.1181C82.7196 15.8446 81.8087 14.8916 80.5773 14.8916C79.2448 14.8916 78.3339 15.8615 78.3339 17.1181C78.3339 18.3748 79.2279 19.3447 80.6701 19.3447C81.4713 19.3447 82.0955 19.0495 82.5087 18.476L81.4967 17.8941C81.328 18.0796 81.0328 18.2146 80.687 18.2146C80.2231 18.2146 79.8352 18.0627 79.6749 17.6242ZM79.6496 16.6796C79.7677 16.2494 80.0882 16.0133 80.5689 16.0133C80.9484 16.0133 81.328 16.1904 81.4629 16.6796H79.6496Z" fill="white"/>
<path d="M87.5698 19.3447C88.8096 19.3447 89.8048 18.3748 89.8048 17.1181C89.8048 15.8615 88.8096 14.8916 87.5698 14.8916C86.33 14.8916 85.3348 15.8615 85.3348 17.1181C85.3348 18.3748 86.33 19.3447 87.5698 19.3447ZM87.5698 18.1133C87.0216 18.1133 86.5999 17.7169 86.5999 17.1181C86.5999 16.5193 87.0216 16.1229 87.5698 16.1229C88.118 16.1229 88.5397 16.5193 88.5397 17.1181C88.5397 17.7169 88.118 18.1133 87.5698 18.1133Z" fill="white"/>
<path d="M92.9915 14.8916C92.4349 14.8916 92.0132 15.094 91.7854 15.406V15.0096H90.5204V19.2266H91.7854V16.9242C91.7854 16.3253 92.1059 16.0555 92.5698 16.0555C92.9746 16.0555 93.3036 16.3 93.3036 16.8229V19.2266H94.5687V16.6374C94.5687 15.4988 93.8433 14.8916 92.9915 14.8916Z" fill="white"/>
<path d="M100.017 16.2241V15.0096H99.1484V13.8289L97.8833 14.2084V15.0096H97.2086V16.2241H97.8833V17.7169C97.8833 18.8977 98.364 19.3953 100.017 19.2266V18.0796C99.4604 18.1133 99.1484 18.0796 99.1484 17.7169V16.2241H100.017Z" fill="white"/>
<path d="M103.205 14.8916C102.648 14.8916 102.226 15.094 101.998 15.406V13.3228H100.733V19.2266H101.998V16.9242C101.998 16.3253 102.319 16.0555 102.783 16.0555C103.188 16.0555 103.517 16.3 103.517 16.8229V19.2266H104.782V16.6374C104.782 15.4988 104.056 14.8916 103.205 14.8916Z" fill="white"/>
<path d="M106.781 17.6242H109.775C109.808 17.4639 109.825 17.2952 109.825 17.1181C109.825 15.8446 108.914 14.8916 107.683 14.8916C106.35 14.8916 105.44 15.8615 105.44 17.1181C105.44 18.3748 106.334 19.3447 107.776 19.3447C108.577 19.3447 109.201 19.0495 109.614 18.476L108.602 17.8941C108.434 18.0796 108.138 18.2146 107.793 18.2146C107.329 18.2146 106.941 18.0627 106.781 17.6242ZM106.755 16.6796C106.873 16.2494 107.194 16.0133 107.675 16.0133C108.054 16.0133 108.434 16.1904 108.569 16.6796H106.755Z" fill="white"/>
<path d="M58.1397 34.6889H60.5996L57.2541 24.8493H54.3866L51.0411 34.6889H53.501L53.993 33.1427H57.6477L58.1397 34.6889ZM54.6677 31.0342L55.8203 27.4217L56.973 31.0342H54.6677Z" fill="white"/>
<path d="M65.5712 27.4638C64.6295 27.4638 63.9407 27.7871 63.4768 28.3213V27.6606H61.3683V37.5003H63.4768V34.0283C63.9407 34.5624 64.6295 34.8857 65.5712 34.8857C67.4127 34.8857 68.9308 33.2692 68.9308 31.1748C68.9308 29.0803 67.4127 27.4638 65.5712 27.4638ZM65.1495 32.8897C64.1796 32.8897 63.4768 32.229 63.4768 31.1748C63.4768 30.1205 64.1796 29.4599 65.1495 29.4599C66.1195 29.4599 66.8223 30.1205 66.8223 31.1748C66.8223 32.229 66.1195 32.8897 65.1495 32.8897Z" fill="white"/>
<path d="M74.3292 27.4638C73.3874 27.4638 72.6986 27.7871 72.2348 28.3213V27.6606H70.1263V37.5003H72.2348V34.0283C72.6986 34.5624 73.3874 34.8857 74.3292 34.8857C76.1706 34.8857 77.6887 33.2692 77.6887 31.1748C77.6887 29.0803 76.1706 27.4638 74.3292 27.4638ZM73.9075 32.8897C72.9376 32.8897 72.2348 32.229 72.2348 31.1748C72.2348 30.1205 72.9376 29.4599 73.9075 29.4599C74.8774 29.4599 75.5802 30.1205 75.5802 31.1748C75.5802 32.229 74.8774 32.8897 73.9075 32.8897Z" fill="white"/>
<path d="M78.8842 34.6889H80.9927V24.4276H78.8842V34.6889Z" fill="white"/>
<path d="M84.4192 32.0182H89.4093C89.4656 31.7511 89.4937 31.47 89.4937 31.1748C89.4937 29.0522 87.9756 27.4638 85.9233 27.4638C83.7023 27.4638 82.1842 29.0803 82.1842 31.1748C82.1842 33.2692 83.6742 34.8857 86.0779 34.8857C87.4133 34.8857 88.4535 34.3937 89.1423 33.4379L87.4555 32.468C87.1743 32.7772 86.6823 33.0021 86.106 33.0021C85.3329 33.0021 84.6863 32.7491 84.4192 32.0182ZM84.3771 30.4438C84.5738 29.7269 85.108 29.3334 85.9092 29.3334C86.5418 29.3334 87.1743 29.6285 87.3992 30.4438H84.3771Z" fill="white"/>
<path d="M97.7179 34.8857C99.8545 34.8857 101.373 33.7612 101.373 31.8635C101.373 29.7832 99.6999 29.2631 98.2099 28.8133C96.6777 28.3494 96.4387 28.0401 96.4387 27.5903C96.4387 27.1967 96.7902 26.8453 97.493 26.8453C98.3926 26.8453 98.8565 27.2811 99.1938 27.9839L101.091 26.8734C100.375 25.4256 99.1095 24.6525 97.493 24.6525C95.7921 24.6525 94.1897 25.7489 94.1897 27.6466C94.1897 29.5301 95.6235 30.233 97.0854 30.6406C98.5613 31.0483 99.1236 31.2872 99.1236 31.8917C99.1236 32.2712 98.8565 32.6929 97.7882 32.6929C96.6777 32.6929 96.0733 32.1447 95.7219 31.3294L93.782 32.4539C94.3303 33.9018 95.6516 34.8857 97.7179 34.8857Z" fill="white"/>
<path d="M106.339 29.6848V27.6606H104.891V25.6927L102.783 26.3252V27.6606H101.658V29.6848H102.783V32.1728C102.783 34.1407 103.584 34.9701 106.339 34.6889V32.7772C105.411 32.8335 104.891 32.7772 104.891 32.1728V29.6848H106.339Z" fill="white"/>
<path d="M110.769 34.8857C112.835 34.8857 114.494 33.2692 114.494 31.1748C114.494 29.0803 112.835 27.4638 110.769 27.4638C108.703 27.4638 107.044 29.0803 107.044 31.1748C107.044 33.2692 108.703 34.8857 110.769 34.8857ZM110.769 32.8335C109.855 32.8335 109.153 32.1728 109.153 31.1748C109.153 30.1768 109.855 29.5161 110.769 29.5161C111.683 29.5161 112.386 30.1768 112.386 31.1748C112.386 32.1728 111.683 32.8335 110.769 32.8335Z" fill="white"/>
<path d="M117.795 28.9117V27.6606H115.687V34.6889H117.795V31.5121C117.795 30.1205 119.032 29.7691 119.904 29.9097V27.52C119.018 27.52 118.076 27.9699 117.795 28.9117Z" fill="white"/>
<path d="M122.567 32.0182H127.557C127.613 31.7511 127.642 31.47 127.642 31.1748C127.642 29.0522 126.123 27.4638 124.071 27.4638C121.85 27.4638 120.332 29.0803 120.332 31.1748C120.332 33.2692 121.822 34.8857 124.226 34.8857C125.561 34.8857 126.601 34.3937 127.29 33.4379L125.603 32.468C125.322 32.7772 124.83 33.0021 124.254 33.0021C123.481 33.0021 122.834 32.7491 122.567 32.0182ZM122.525 30.4438C122.722 29.7269 123.256 29.3334 124.057 29.3334C124.69 29.3334 125.322 29.6285 125.547 30.4438H122.525Z" fill="white"/>
</svg>
