<svg width="75" height="56" viewBox="0 0 75 56" fill="none" xmlns="http://www.w3.org/2000/svg">
<path d="M3.85566 1.336H12.5437C14.0797 1.336 14.8477 1.952 14.8477 3.184C14.8477 3.616 14.6477 4.08 14.2477 4.576C13.5917 4.288 12.6477 4.144 11.4157 4.144H9.51966V16.528C9.51966 17.392 9.78366 17.96 10.3117 18.232C9.70366 18.92 8.96766 19.264 8.10366 19.264C6.53566 19.264 5.75166 18.312 5.75166 16.408V4.144H2.72766C1.19166 4.144 0.423656 3.528 0.423656 2.296C0.423656 1.864 0.623656 1.4 1.02366 0.904C1.67966 1.192 2.62366 1.336 3.85566 1.336ZM17.3056 16.408V8.896C17.3056 8.064 17.0336 7.504 16.4896 7.216C17.0976 6.528 17.8336 6.184 18.6976 6.184C20.1216 6.184 20.9056 6.952 21.0496 8.488C21.6896 6.952 22.7536 6.184 24.2416 6.184C24.9936 6.184 25.6096 6.408 26.0896 6.856C26.5856 7.304 26.8336 7.904 26.8336 8.656C26.8336 9.408 26.6416 10.008 26.2576 10.456C25.8896 10.888 25.3216 11.104 24.5536 11.104C24.4576 11.104 24.2496 11.088 23.9296 11.056C23.9936 10.768 24.0256 10.584 24.0256 10.504C24.0256 10.104 23.9056 9.792 23.6656 9.568C23.4416 9.328 23.1616 9.208 22.8256 9.208C21.9616 9.208 21.3776 9.864 21.0736 11.176V16.528C21.0736 17.392 21.3376 17.96 21.8656 18.232C21.2576 18.92 20.5216 19.264 19.6576 19.264C18.0896 19.264 17.3056 18.312 17.3056 16.408ZM32.3095 15.712C32.3095 16.496 32.7575 16.888 33.6535 16.888C34.3095 16.888 34.9015 16.584 35.4295 15.976V13.648C33.3495 13.76 32.3095 14.448 32.3095 15.712ZM39.1975 10.504V15.952C39.1975 16.96 39.6295 17.6 40.4935 17.872C40.2055 18.272 39.8135 18.608 39.3175 18.88C38.8375 19.136 38.3255 19.264 37.7815 19.264C36.5975 19.264 35.8615 18.736 35.5735 17.68C34.5815 18.736 33.3415 19.264 31.8535 19.264C30.7495 19.264 29.8695 18.992 29.2135 18.448C28.5575 17.904 28.2295 17.136 28.2295 16.144C28.2295 14.928 28.8615 13.96 30.1255 13.24C31.4055 12.504 33.1735 12.12 35.4295 12.088V9.808C35.4295 8.736 34.9975 8.2 34.1335 8.2C33.7815 8.2 33.4855 8.312 33.2455 8.536C33.0215 8.744 32.9095 9.032 32.9095 9.4C32.9095 9.752 33.0375 10.08 33.2935 10.384C32.7495 10.96 32.0615 11.248 31.2295 11.248C30.4135 11.248 29.8055 11.064 29.4055 10.696C29.0215 10.328 28.8295 9.848 28.8295 9.256C28.8295 8.36 29.3735 7.624 30.4615 7.048C31.5655 6.472 32.8455 6.184 34.3015 6.184C35.7735 6.184 36.9575 6.528 37.8535 7.216C38.7495 7.904 39.1975 9 39.1975 10.504ZM50.3176 9.256C50.4936 8.728 50.5816 8.248 50.5816 7.816C50.5816 7.368 50.4776 6.968 50.2696 6.616C50.8136 6.328 51.4216 6.184 52.0936 6.184C52.7816 6.184 53.3176 6.352 53.7016 6.688C54.0856 7.024 54.2776 7.44 54.2776 7.936C54.2776 8.432 54.1416 9.032 53.8696 9.736L51.3496 16.264C50.9496 17.336 50.5096 18.088 50.0296 18.52C49.5656 18.952 48.8616 19.168 47.9176 19.168C46.9896 19.168 46.2856 18.968 45.8056 18.568C45.3256 18.168 44.9176 17.4 44.5816 16.264L42.5176 9.232C42.2616 8.416 41.9256 7.864 41.5096 7.576C41.7016 7.176 42.0136 6.848 42.4456 6.592C42.8776 6.32 43.3336 6.184 43.8136 6.184C45.2376 6.184 46.1016 6.968 46.4056 8.536L47.9896 16.672L50.3176 9.256ZM62.3435 11.056C62.6315 11.024 62.8475 10.936 62.9915 10.792C63.1355 10.632 63.2075 10.336 63.2075 9.904C63.2075 9.472 63.0795 9.08 62.8235 8.728C62.5835 8.36 62.2475 8.176 61.8155 8.176C61.3835 8.176 60.9755 8.448 60.5915 8.992C60.2075 9.536 59.9515 10.328 59.8235 11.368L62.3435 11.056ZM62.7515 16.648C64.0795 16.648 65.1915 16.144 66.0875 15.136C66.4555 15.296 66.6395 15.632 66.6395 16.144C66.6395 16.912 66.1835 17.624 65.2715 18.28C64.3595 18.936 63.2875 19.264 62.0555 19.264C60.1515 19.264 58.6635 18.744 57.5915 17.704C56.5355 16.664 56.0075 15.176 56.0075 13.24C56.0075 11.288 56.5915 9.624 57.7595 8.248C58.9275 6.872 60.4075 6.184 62.1995 6.184C63.5755 6.184 64.7115 6.632 65.6075 7.528C66.5035 8.408 66.9515 9.416 66.9515 10.552C66.9515 11.432 66.7435 12.064 66.3275 12.448C65.9115 12.832 65.1995 13.04 64.1915 13.072L59.7515 13.192C59.8635 15.496 60.8635 16.648 62.7515 16.648ZM73.3158 3.04V16.528C73.3158 17.392 73.5798 17.96 74.1078 18.232C73.4998 18.92 72.7638 19.264 71.8998 19.264C70.3318 19.264 69.5478 18.312 69.5478 16.408V2.896C69.5478 2.096 69.2758 1.528 68.7318 1.192C69.3398 0.519999 70.0758 0.183999 70.9398 0.183999C72.5238 0.183999 73.3158 1.136 73.3158 3.04ZM38.0058 43.04V51.776C38.0058 52.928 38.3578 53.6853 39.0618 54.048C38.2511 54.9653 37.2911 55.424 36.1818 55.424C35.0724 55.424 34.2618 55.1147 33.7498 54.496C33.2378 53.8773 32.9818 52.9173 32.9818 51.616V49.888C31.7658 51.5307 29.8778 52.352 27.3178 52.352C24.8431 52.352 22.5604 51.456 20.4698 49.664C19.4671 48.7893 18.6458 47.6053 18.0058 46.112C17.3871 44.6187 17.0778 42.944 17.0778 41.088C17.0778 37.248 18.1871 34.1333 20.4058 31.744C22.6458 29.3333 25.8031 28.128 29.8778 28.128C32.1604 28.128 34.1018 28.5973 35.7018 29.536C37.3231 30.4747 38.1338 31.6053 38.1338 32.928C38.1338 33.696 37.7711 34.3467 37.0458 34.88C36.3418 35.392 35.5311 35.648 34.6138 35.648C33.6964 35.648 32.8751 35.424 32.1498 34.976C32.1711 34.7627 32.1818 34.56 32.1818 34.368C32.1818 33.408 31.9044 32.5973 31.3498 31.936C30.7951 31.2747 29.9631 30.944 28.8538 30.944C26.9124 30.944 25.3764 31.776 24.2458 33.44C23.0511 35.1467 22.4538 37.344 22.4538 40.032C22.4538 42.72 23.0084 44.8107 24.1178 46.304C25.2271 47.776 26.7844 48.512 28.7898 48.512C31.5844 48.512 32.9818 47.2213 32.9818 44.64V43.136H31.9578C30.8484 43.136 29.8458 43.1573 28.9498 43.2C28.5658 42.6453 28.3738 42.0053 28.3738 41.28C28.3738 40.5333 28.7471 40.0213 29.4938 39.744C30.2404 39.4453 31.5204 39.296 33.3338 39.296C35.1471 39.296 36.3738 39.584 37.0138 40.16C37.6751 40.736 38.0058 41.696 38.0058 43.04ZM49.719 37.344C47.8843 37.344 46.967 38.944 46.967 42.144C46.967 42.6133 46.9883 43.104 47.031 43.616C47.287 47.8187 48.4603 49.92 50.551 49.92C52.3857 49.92 53.303 48.3093 53.303 45.088C53.303 44.64 53.2817 44.1493 53.239 43.616C52.9403 39.4347 51.767 37.344 49.719 37.344ZM44.183 37.184C45.6977 35.6693 47.6817 34.912 50.135 34.912C52.5883 34.912 54.5723 35.6693 56.087 37.184C57.6017 38.6773 58.359 40.8213 58.359 43.616C58.359 46.4107 57.591 48.5653 56.055 50.08C54.5403 51.5947 52.5563 52.352 50.103 52.352C47.671 52.352 45.6977 51.5947 44.183 50.08C42.6683 48.5653 41.911 46.4107 41.911 43.616C41.911 40.8213 42.6683 38.6773 44.183 37.184Z" fill="black"/>
</svg>
