<svg width="151" height="51" viewBox="0 0 151 51" fill="none" xmlns="http://www.w3.org/2000/svg">
<rect x="0.191528" y="0.952637" width="150.406" height="49.1982" rx="17.5" fill="#080809"/>
<g clip-path="url(#clip0_19_392)">
<path d="M40.2633 24.8513L26.1455 38.4458C25.4844 37.994 25.0919 37.2425 25.0988 36.4418V13.2609C25.0919 12.4602 25.4844 11.7086 26.1455 11.2568L40.2633 24.8513Z" fill="#2196F3"/>
<path d="M45.2033 20.1031L40.2633 24.8516L26.1455 11.2571C26.1987 11.2159 26.2541 11.1775 26.3114 11.1422C27.0576 10.69 27.9896 10.6754 28.7495 11.1039L45.2033 20.1031Z" fill="#4CAF50"/>
<path d="M51.19 24.8515C51.1992 25.7555 50.708 26.5904 49.9135 27.0216L45.2033 29.6L40.2634 24.8515L45.2033 20.103L49.9135 22.6815C50.708 23.1127 51.1992 23.9476 51.19 24.8515Z" fill="#F0BB1F"/>
<path d="M45.2033 29.6001L28.7495 38.5992C27.9879 39.0211 27.0594 39.0065 26.3114 38.5609C26.2541 38.5256 26.1987 38.4873 26.1455 38.4461L40.2634 24.8516L45.2033 29.6001Z" fill="#F15A2B"/>
</g>
<path d="M67.6971 17.6523H63.75V19.2266H65.8529C65.5718 19.98 64.8858 20.4411 63.84 20.4411C62.3106 20.4411 61.366 19.4628 61.366 18.1246C61.366 16.7414 62.3556 15.7631 63.6826 15.7631C64.5709 15.7631 65.2794 16.1679 65.6055 16.6852L67.1349 15.808C66.4714 14.751 65.2007 14.0088 63.6938 14.0088C61.3773 14.0088 59.5668 15.8305 59.5668 18.1133C59.5668 20.3736 61.3435 22.1954 63.8175 22.1954C66.0216 22.1954 67.6971 20.7335 67.6971 18.327V17.6523Z" fill="white"/>
<path d="M69.9485 20.3062V18.9117H72.7598V17.2025H69.9485V15.898H73.0409V14.1662H68.1492V22.0379H73.0972V20.3062H69.9485Z" fill="white"/>
<path d="M78.8353 14.1662H72.9878V15.898H75.0119V22.0379H76.8112V15.898H78.8353V14.1662Z" fill="white"/>
<path d="M81.3098 14.1662V22.0379H83.109V14.1662H81.3098Z" fill="white"/>
<path d="M89.1845 14.1662H83.337V15.898H85.3611V22.0379H87.1604V15.898H89.1845V14.1662Z" fill="white"/>
<path d="M95.4149 22.1954C97.6752 22.1954 99.5082 20.4186 99.5082 18.1021C99.5082 15.7855 97.6752 14.0088 95.4149 14.0088C93.1546 14.0088 91.3216 15.7855 91.3216 18.1021C91.3216 20.4186 93.1546 22.1954 95.4149 22.1954ZM95.4149 20.4411C94.1329 20.4411 93.1208 19.5077 93.1208 18.1021C93.1208 16.6964 94.1329 15.7631 95.4149 15.7631C96.6968 15.7631 97.7089 16.6964 97.7089 18.1021C97.7089 19.5077 96.6968 20.4411 95.4149 20.4411Z" fill="white"/>
<path d="M104.345 14.1662V18.4394L101.308 14.1662H99.959V22.0379H101.758V17.7647L104.794 22.0379H106.144V14.1662H104.345Z" fill="white"/>
<path d="M67.6971 31.0229V31.3266C67.6971 32.3087 67.3485 33.1371 66.6513 33.8118C65.9541 34.479 65.0357 34.8126 63.8962 34.8126C62.6967 34.8126 61.7071 34.4228 60.9275 33.6431C60.1478 32.8559 59.7579 31.8926 59.7579 30.7531C59.7579 29.6135 60.144 28.6539 60.9162 27.8743C61.6884 27.0871 62.6667 26.6935 63.8512 26.6935C64.5709 26.6935 65.2307 26.8659 65.8304 27.2108C66.4377 27.5556 66.9062 28.0167 67.2361 28.594L66.7075 28.9088C66.4452 28.414 66.0553 28.0167 65.538 27.7168C65.0282 27.4169 64.466 27.267 63.8512 27.267C62.8317 27.267 61.992 27.6044 61.3323 28.2791C60.6801 28.9463 60.3539 29.771 60.3539 30.7531C60.3539 31.7351 60.6838 32.5636 61.3435 33.2383C62.0033 33.9055 62.8542 34.2391 63.8962 34.2391C64.8183 34.2391 65.5643 33.988 66.134 33.4857C66.7038 32.9834 67.0224 32.3499 67.0899 31.5852H63.75V31.0229H67.6971Z" fill="white"/>
<path d="M75.6794 33.6319C74.8922 34.419 73.9326 34.8126 72.8006 34.8126C71.6685 34.8126 70.7089 34.419 69.9218 33.6319C69.1346 32.8372 68.741 31.8776 68.741 30.7531C68.741 29.6285 69.1346 28.6727 69.9218 27.8855C70.7089 27.0908 71.6685 26.6935 72.8006 26.6935C73.9326 26.6935 74.8922 27.0908 75.6794 27.8855C76.4665 28.6727 76.8601 29.6285 76.8601 30.7531C76.8601 31.8776 76.4665 32.8372 75.6794 33.6319ZM70.3378 33.227C71.0126 33.9017 71.8335 34.2391 72.8006 34.2391C73.7677 34.2391 74.5848 33.9017 75.252 33.227C75.9268 32.5448 76.2641 31.7202 76.2641 30.7531C76.2641 29.786 75.9268 28.9651 75.252 28.2903C74.5848 27.6081 73.7677 27.267 72.8006 27.267C71.8335 27.267 71.0126 27.6081 70.3378 28.2903C69.6706 28.9651 69.337 29.786 69.337 30.7531C69.337 31.7202 69.6706 32.5448 70.3378 33.227Z" fill="white"/>
<path d="M84.8601 33.6319C84.0729 34.419 83.1133 34.8126 81.9813 34.8126C80.8493 34.8126 79.8897 34.419 79.1025 33.6319C78.3153 32.8372 77.9218 31.8776 77.9218 30.7531C77.9218 29.6285 78.3153 28.6727 79.1025 27.8855C79.8897 27.0908 80.8493 26.6935 81.9813 26.6935C83.1133 26.6935 84.0729 27.0908 84.8601 27.8855C85.6473 28.6727 86.0409 29.6285 86.0409 30.7531C86.0409 31.8776 85.6473 32.8372 84.8601 33.6319ZM79.5186 33.227C80.1933 33.9017 81.0142 34.2391 81.9813 34.2391C82.9484 34.2391 83.7656 33.9017 84.4328 33.227C85.1075 32.5448 85.4449 31.7202 85.4449 30.7531C85.4449 29.786 85.1075 28.9651 84.4328 28.2903C83.7656 27.6081 82.9484 27.267 81.9813 27.267C81.0142 27.267 80.1933 27.6081 79.5186 28.2903C78.8514 28.9651 78.5178 29.786 78.5178 30.7531C78.5178 31.7202 78.8514 32.5448 79.5186 33.227Z" fill="white"/>
<path d="M95.0417 31.0229V31.3266C95.0417 32.3087 94.6931 33.1371 93.9959 33.8118C93.2987 34.479 92.3803 34.8126 91.2408 34.8126C90.0413 34.8126 89.0517 34.4228 88.272 33.6431C87.4923 32.8559 87.1025 31.8926 87.1025 30.7531C87.1025 29.6135 87.4886 28.6539 88.2608 27.8743C89.0329 27.0871 90.0113 26.6935 91.1958 26.6935C91.9155 26.6935 92.5752 26.8659 93.175 27.2108C93.7822 27.5556 94.2508 28.0167 94.5806 28.594L94.0521 28.9088C93.7897 28.414 93.3999 28.0167 92.8826 27.7168C92.3728 27.4169 91.8105 27.267 91.1958 27.267C90.1762 27.267 89.3366 27.6044 88.6768 28.2791C88.0246 28.9463 87.6985 29.771 87.6985 30.7531C87.6985 31.7351 88.0284 32.5636 88.6881 33.2383C89.3478 33.9055 90.1987 34.2391 91.2408 34.2391C92.1629 34.2391 92.9088 33.988 93.4786 33.4857C94.0483 32.9834 94.367 32.3499 94.4344 31.5852H91.0946V31.0229H95.0417Z" fill="white"/>
<path d="M97.1314 34.1266H100.842V34.6889H96.5354V26.8172H97.1314V34.1266Z" fill="white"/>
<path d="M102.677 34.1266H106.613V34.6889H102.081V26.8172H106.557V27.3795H102.677V30.4382H106.276V31.0005H102.677V34.1266Z" fill="white"/>
<path d="M113.752 26.8172C114.456 26.8172 115.041 27.0496 115.506 27.5144C115.971 27.9792 116.203 28.5602 116.203 29.2574C116.203 29.9546 115.971 30.5356 115.506 31.0005C115.041 31.4578 114.456 31.6864 113.752 31.6864H111.671V34.6889H111.075V26.8172H113.752ZM113.752 31.1242C114.291 31.1242 114.734 30.948 115.079 30.5956C115.431 30.2433 115.607 29.7972 115.607 29.2574C115.607 28.7102 115.431 28.2603 115.079 27.908C114.734 27.5556 114.291 27.3795 113.752 27.3795H111.671V31.1242H113.752Z" fill="white"/>
<path d="M118.271 34.1266H121.982V34.6889H117.675V26.8172H118.271V34.1266Z" fill="white"/>
<path d="M128.737 34.6889L127.973 32.6872H124.025L123.261 34.6889H122.631L125.69 26.8172H126.319L129.367 34.6889H128.737ZM124.25 32.125H127.759L126.005 27.5481L124.25 32.125Z" fill="white"/>
<path d="M134.968 26.8172L132.1 31.4503V34.6889H131.504V31.4503L128.637 26.8172H129.311L131.808 30.8768L134.293 26.8172H134.968Z" fill="white"/>
<defs>
<clipPath id="clip0_19_392">
<rect width="28.1133" height="28.1133" fill="white" transform="translate(24.0878 10.7925)"/>
</clipPath>
</defs>
</svg>
